Coordinates
version=1
nRows=9
nColumns=42
inDegrees=yes

Units are S.I. units (second, meters, Newtons, ...)
If the header above contains a line with 'inDegrees', this indicates whether rotational values are in degrees (yes) or radians (no).

endheader
time	pelvis_tilt	pelvis_list	pelvis_rotation	pelvis_tx	pelvis_ty	pelvis_tz	hip_flexion_r	hip_adduction_r	hip_rotation_r	knee_angle_r	knee_adduction_r	knee_angle_r_beta	ankle_angle_r	subtalar_angle_r	mtp_angle_r	hip_flexion_l	hip_adduction_l	hip_rotation_l	knee_angle_l	knee_adduction_l	knee_angle_l_beta	ankle_angle_l	subtalar_angle_l	mtp_angle_l	lumbar_extension	lumbar_bending	lumbar_rotation	arm_flex_r	arm_add_r	arm_rot_r	elbow_flex_r	pro_sup_r	wrist_flex_r	wrist_dev_r	arm_flex_l	arm_add_l	arm_rot_l	elbow_flex_l	pro_sup_l	wrist_flex_l	wrist_dev_l
      1.15000000	     23.02149329	      3.17673193	      0.23123142	     -0.83729739	      0.90700066	     -0.06203923	     -0.86865609	     -9.36533248	    -17.04484733	     71.07488962	     -8.28842778	      1.24049084	     13.78259923	    -14.67859494	     -7.56764893	    -10.88247490	      7.31068577	     -7.26702944	     29.94283046	     -0.35169073	      0.52260098	     22.19378369	     -3.73780591	     -7.56764893	    -44.04114066	     -2.95337107	     -2.07316466	      6.99345806	     -4.97487516	    -20.80997666	     30.59173083	     90.00000001	      0.00000000	      0.00000000	      9.12207456	     -5.49269344	    -29.29556611	     37.46799994	     90.00000001	      0.00000000	      0.00000000
      1.16000000	     22.97154027	      3.18765294	      0.23835930	     -0.83022660	      0.90723188	     -0.06265905	      0.56319169	     -9.40319592	    -17.06984608	     70.04958685	     -8.14318782	      1.22259593	     14.14815443	    -14.31285967	     -7.56635910	    -11.59528412	      7.38771744	     -7.20156725	     29.45595441	     -0.33163509	      0.51410339	     22.57864788	     -3.52834410	     -7.56635910	    -44.14602770	     -2.90598575	     -2.27768761	      6.61411768	     -4.95938679	    -20.96607988	     30.41256641	     90.00000001	      0.00000000	      0.00000000	      9.54807959	     -5.75649730	    -29.11531863	     37.68271679	     90.00000001	      0.00000000	      0.00000000
      1.17000000	     22.79802046	      3.24159440	      0.30919862	     -0.82319647	      0.90714182	     -0.06325871	      2.05939831	     -9.48893126	    -17.01231621	     68.88340660	     -7.82800065	      1.20224225	     14.14906921	    -13.75494074	     -7.56555824	    -11.98962881	      7.39040930	     -7.36509784	     29.36421388	     -0.26999884	      0.51250221	     22.60473167	     -3.33532049	     -7.56555824	    -44.11799201	     -2.88176870	     -2.61925351	      6.19301943	     -4.93176964	    -21.00488558	     30.39821477	     90.00000001	      0.00000000	      0.00000000	      9.96515483	     -6.06648389	    -29.01068737	     37.96170911	     90.00000001	      0.00000000	      0.00000000
      1.18000000	     22.90969460	      3.24026291	      0.28440497	     -0.81592456	      0.90741124	     -0.06380316	      3.09339296	     -9.48380324	    -17.16391313	     67.36769522	     -7.74485506	      1.17578809	     14.43781299	    -13.48660627	     -7.56405147	    -13.07272748	      7.52028457	     -7.15453150	     28.51121528	     -0.28741302	      0.49761458	     23.29326945	     -3.02180502	     -7.56405147	    -44.33867039	     -2.82477553	     -2.73750055	      5.83742460	     -4.91635162	    -21.40060994	     29.92737867	     90.00000001	      0.00000000	      0.00000000	     10.40736029	     -6.31667451	    -28.65467096	     38.05341022	     90.00000001	      0.00000000	      0.00000000
      1.19000000	     22.65755712	      3.34268744	      0.33893902	     -0.80894140	      0.90703799	     -0.06426352	      4.54276812	     -9.65437901	    -17.14199025	     65.90618850	     -7.35134219	      1.15027999	     14.36031455	    -12.96032087	     -7.56327223	    -13.35036194	      7.55948170	     -7.36819029	     28.46138704	     -0.22587110	      0.49674491	     23.28516661	     -2.82450497	     -7.56327223	    -44.23368582	     -2.87630910	     -3.08147381	      5.41330409	     -4.91901984	    -21.45851243	     29.92799761	     90.00000001	      0.00000000	      0.00000000	     10.81402030	     -6.63946977	    -28.54263472	     38.33326327	     90.00000001	      0.00000000	      0.00000000
      1.20000000	     22.80379936	      3.28622987	      0.38889990	     -0.80156456	      0.90720238	     -0.06464261	      5.32717576	     -9.55355627	    -17.75849429	     63.98130149	     -7.53015556	      1.11668437	     14.25055214	    -12.71850320	     -7.55645654	    -14.40056056	      7.52410789	     -7.59434888	     27.74699091	     -0.38913912	      0.48427635	     24.14601400	     -1.66427393	     -7.55645654	    -44.45486946	     -2.75285206	     -3.16227102	      5.54862665	     -4.54739342	    -24.54354433	     28.71156496	     90.00000001	      0.00000000	      0.00000000	     11.12726198	     -7.19714253	    -26.66898570	     38.16995475	     90.00000001	      0.00000000	      0.00000000
      1.21000000	     22.70650686	      3.33443330	      0.42576923	     -0.79439576	      0.90690716	     -0.06508073	      6.36523451	     -9.62255798	    -17.83303482	     62.12239513	     -7.16737538	      1.08424033	     14.19033723	    -12.53502782	     -7.55534737	    -15.02471915	      7.62138537	     -7.76650566	     27.33318938	     -0.52158192	      0.47705415	     24.40563903	     -1.42333815	     -7.55534737	    -44.45828662	     -2.72437071	     -3.34597011	      5.05092878	     -4.55131008	    -24.70355169	     28.68630371	     90.00000001	      0.00000000	      0.00000000	     11.53982092	     -7.42291157	    -26.54556660	     38.45740937	     90.00000001	      0.00000000	      0.00000000
      1.22000000	     22.64873483	      3.39034651	      0.48646356	     -0.78716047	      0.90659444	     -0.06538689	      7.24708651	     -9.70463374	    -18.12180384	     60.12531234	     -6.89314000	      1.04938466	     14.01174576	    -12.45078612	     -7.55420918	    -15.70381249	      7.63900026	     -8.01109640	     26.92028013	     -0.57027265	      0.46984752	     24.72923912	     -0.98484057	     -7.55420918	    -44.51315882	     -2.74785316	     -3.54921084	      4.59952159	     -4.58534029	    -24.92813490	     28.59668813	     90.00000001	      0.00000000	      0.00000000	     11.98304841	     -7.69502923	    -26.36619146	     38.67127006	     90.00000001	      0.00000000	      0.00000000
      1.23000000	     22.30840776	      3.60189313	      0.54811089	     -0.78007825	      0.90574801	     -0.06565525	      8.48701598	    -10.04072298	    -18.25122135	     58.29670276	     -6.41006333	      1.01746941	     13.88902749	    -12.07270104	     -7.55353660	    -15.88785271	      7.74026465	     -8.34573445	     26.86942126	     -0.48950419	      0.46895987	     24.74603721	     -0.77045745	     -7.55353660	    -44.27664348	     -2.92980622	     -3.86266785	      4.10173097	     -4.58501549	    -24.97660035	     28.61345445	     90.00000001	      0.00000000	      0.00000000	     12.40639573	     -8.02016738	    -26.27710984	     38.95620289	     90.00000001	      0.00000000	      0.00000000
